<?xml version="1.0" encoding="iso-8859-1"?>
<!-- Generator: Adobe Illustrator 19.0.0, SVG Export Plug-In . SVG Version: 6.00 Build 0)  -->
<svg version="1.1" id="Layer_1" xmlns="http://www.w3.org/2000/svg" xmlns:xlink="http://www.w3.org/1999/xlink" x="0px" y="0px"
	 viewBox="0 0 512 512" style="enable-background:new 0 0 512 512;" xml:space="preserve">
<circle style="fill:#E1EFFA;" cx="256" cy="256" r="256"/>
<path style="fill:#BCD4E8;" d="M380.523,169.137c-1.019-0.694-2.081-1.277-3.215-1.756l-1.756-0.732l-109.125-46.372
	c-3.182-1.357-6.733-2.122-10.424-2.122c-3.694,0-7.24,0.765-10.424,2.122l-62.208,26.442l-48.678,20.662
	c-3.471,1.503-6.579,3.988-8.85,7.388c-2.086,3.182-3.182,6.764-3.295,10.353c-0.036,0.253-0.036,0.548-0.036,0.801v140.252
	c0,3.807,1.096,7.639,3.328,11.041l5.632,5.632L297.26,508.636c108.321-17.556,193.82-103.058,211.377-211.379L380.523,169.137z"/>
<path style="fill:#34495E;" d="M266.44,120.284c-3.203-1.37-6.728-2.127-10.432-2.127c-3.712,0-7.237,0.758-10.447,2.127
	L134.71,167.388c-3.502,1.49-6.612,3.976-8.865,7.388c-2.248,3.4-3.328,7.242-3.328,11.034v140.372c0,3.791,1.08,7.639,3.328,11.041
	c2.253,3.412,5.366,5.901,8.865,7.388l110.851,47.104c3.208,1.362,6.735,2.127,10.447,2.127c3.704,0,7.229-0.765,10.432-2.127
	l110.853-47.104c3.497-1.487,6.62-3.976,8.87-7.388c2.255-3.4,3.323-7.247,3.323-11.041V185.81c0-3.791-1.068-7.634-3.323-11.034
	c-2.25-3.412-5.373-5.898-8.87-7.373L266.44,120.284z"/>
<path style="fill:#5D6D7E;" d="M386.163,174.776c-2.25-3.412-5.373-5.898-8.87-7.373l-1.756-0.758
	c1.656,0.717,2.831,2.365,2.831,4.306c0,1.93-1.175,3.581-2.831,4.291L266.44,221.609c-3.203,1.362-6.728,2.122-10.432,2.122
	c-3.712,0-7.237-0.758-10.447-2.122L136.479,175.24c-1.672-0.709-2.847-2.36-2.847-4.291c0-1.938,1.175-3.589,2.847-4.306
	l46.894-19.932l-48.66,20.675c-3.502,1.49-6.612,3.976-8.865,7.388c-2.248,3.4-3.328,7.242-3.328,11.034v0.118
	c0-2.163,1.057-4.291,2.998-5.568c1.938-1.28,4.298-1.418,6.292-0.576l104.94,44.595c4.664,1.994,8.814,5.302,11.82,9.848
	c3.003,4.536,4.431,9.656,4.431,14.725v138.865c0,1.518-0.73,2.998-2.092,3.896c-1.129,0.75-2.478,0.934-3.702,0.632
	c2.755,0.963,5.709,1.495,8.804,1.495c3.082,0,6.047-0.532,8.809-1.495c-1.231,0.302-2.578,0.118-3.722-0.632
	c-1.349-0.901-2.084-2.381-2.084-3.896V248.955c0-5.069,1.418-10.189,4.426-14.725c3.003-4.544,7.16-7.852,11.825-9.848
	l104.945-44.595c1.984-0.842,4.355-0.701,6.292,0.576c1.938,1.277,2.985,3.407,2.985,5.568v-0.118
	C389.486,182.019,388.419,178.176,386.163,174.776z"/>
<g>
	<path style="fill:#FFFFFF;" d="M161.226,322.826c0,8.294-5.373,12.746-12.014,9.953c-6.628-2.803-12.012-11.791-12.012-20.081
		c0-8.3,5.384-12.751,12.012-9.953C155.855,305.541,161.226,314.529,161.226,322.826z"/>
	<path style="fill:#FFFFFF;" d="M241.326,356.593c0,8.287-5.381,12.751-12.017,9.946c-6.636-2.783-12.012-11.779-12.012-20.081
		c0-8.287,5.376-12.746,12.012-9.946C235.948,339.308,241.326,348.306,241.326,356.593z"/>
	<path style="fill:#FFFFFF;" d="M161.226,222.723c0,8.282-5.373,12.733-12.014,9.938c-6.628-2.796-12.012-11.779-12.012-20.081
		c0-8.294,5.384-12.754,12.012-9.951C155.855,205.432,161.226,214.415,161.226,222.723z"/>
	<path style="fill:#FFFFFF;" d="M241.326,256.481c0,8.297-5.381,12.749-12.017,9.956c-6.636-2.803-12.012-11.794-12.012-20.088
		c0-8.287,5.376-12.746,12.012-9.946C235.948,239.194,241.326,248.189,241.326,256.481z"/>
	<path style="fill:#FFFFFF;" d="M201.28,289.654c0,8.294-5.386,12.746-12.009,9.958c-6.643-2.808-12.017-11.796-12.017-20.086
		c0-8.294,5.373-12.746,12.017-9.953C195.894,272.371,201.28,281.359,201.28,289.654z"/>
	<path style="fill:#FFFFFF;" d="M310.733,289.654c0,8.294,5.376,12.746,12.012,9.958c6.641-2.808,12.009-11.796,12.009-20.086
		c0-8.294-5.371-12.746-12.009-9.953C316.106,272.371,310.733,281.359,310.733,289.654z"/>
	<path style="fill:#FFFFFF;" d="M187.924,177.677c-6.641,2.824-17.385,2.824-24.023,0c-6.643-2.824-6.643-7.38,0-10.204
		c6.638-2.829,17.393-2.829,24.023,0C194.563,170.294,194.563,174.853,187.924,177.677z"/>
	<path style="fill:#FFFFFF;" d="M348.104,177.677c-6.63,2.824-17.388,2.824-24.023,0c-6.63-2.824-6.63-7.38,0-10.204
		c6.635-2.829,17.393-2.829,24.023,0C354.742,170.294,354.742,174.853,348.104,177.677z"/>
	<path style="fill:#FFFFFF;" d="M268.017,177.677c-6.636,2.824-17.395,2.824-24.023,0c-6.638-2.824-6.638-7.38,0-10.204
		c6.625-2.829,17.388-2.829,24.023,0C274.657,170.294,274.657,174.853,268.017,177.677z"/>
</g>
<g>
</g>
<g>
</g>
<g>
</g>
<g>
</g>
<g>
</g>
<g>
</g>
<g>
</g>
<g>
</g>
<g>
</g>
<g>
</g>
<g>
</g>
<g>
</g>
<g>
</g>
<g>
</g>
<g>
</g>
</svg>
