<?xml version="1.0" encoding="iso-8859-1"?>
<!-- Generator: Adobe Illustrator 19.0.0, SVG Export Plug-In . SVG Version: 6.00 Build 0)  -->
<svg version="1.1" id="Layer_1" xmlns="http://www.w3.org/2000/svg" xmlns:xlink="http://www.w3.org/1999/xlink" x="0px" y="0px"
	 viewBox="0 0 512 512" style="enable-background:new 0 0 512 512;" xml:space="preserve">
<polygon style="fill:#4780D1;" points="468.983,160.114 503.264,321.219 438.695,305.841 385.979,346.18 351.698,185.064 "/>
<polygon style="fill:#F2F2F2;" points="315.506,193.97 315.506,358.688 255.543,330.213 195.591,358.688 195.591,193.97 "/>
<polygon style="fill:#F73C3C;" points="155.644,188.731 130.018,351.441 75.228,313.983 11.576,332.788 37.192,170.078 "/>
<path d="M50.966,212.74l2.141,0.337l6.448,53.971c0.416,3.476,2.995,6.303,6.418,7.034c3.421,0.732,6.933-0.795,8.731-3.797
	l11.918-19.89l5.23,22.59c0.789,3.411,3.66,5.941,7.141,6.298c0.281,0.028,0.559,0.043,0.836,0.043c3.168,0,6.087-1.84,7.433-4.764
	l22.724-49.377l0.848,0.133c0.431,0.069,0.86,0.1,1.284,0.1c3.959,0,7.44-2.879,8.075-6.913c0.704-4.466-2.347-8.656-6.813-9.359
	l-15.521-2.444c-4.458-0.704-8.656,2.347-9.359,6.813c-0.592,3.755,1.476,7.307,4.802,8.763l-10.901,23.687l-4.403-19.017
	c-0.752-3.251-3.404-5.721-6.701-6.24c-3.29-0.517-6.579,1.016-8.295,3.879L72.97,241.331l-3.104-25.978
	c3.475-0.487,6.375-3.182,6.949-6.827c0.704-4.465-2.347-8.656-6.813-9.359l-16.491-2.597c-4.457-0.704-8.656,2.347-9.359,6.813
	C43.451,207.847,46.501,212.037,50.966,212.74z"/>
<path d="M247.11,275.971c-4.521,0-8.186,3.665-8.186,8.186c0,4.521,3.665,8.186,8.186,8.186h17.967c4.521,0,8.186-3.665,8.186-8.186
	c0-4.521-3.665-8.186-8.186-8.186h-0.798v-41.902h0.798c4.521,0,8.186-3.665,8.186-8.186c0-4.521-3.665-8.186-8.186-8.186H247.11
	c-4.521,0-8.186,3.665-8.186,8.186c0,4.521,3.665,8.186,8.186,8.186h0.798v41.902H247.11z"/>
<path d="M456.068,203.948c4.421-0.941,7.244-5.288,6.303-9.71c-0.942-4.421-5.28-7.242-9.71-6.303l-9.548,2.031
	c-0.001,0-0.002,0-0.003,0c-0.001,0-0.002,0-0.003,0.001l-9.93,2.113c-4.421,0.941-7.244,5.288-6.303,9.71
	c0.819,3.847,4.216,6.483,7.999,6.483c0.564,0,1.137-0.059,1.711-0.181l1.926-0.409l6.206,29.167l-50.339-33.959
	c-0.015-0.01-0.032-0.016-0.047-0.026c-0.299-0.199-0.613-0.375-0.936-0.534c-0.073-0.036-0.146-0.069-0.22-0.102
	c-0.313-0.142-0.633-0.27-0.964-0.372c-0.017-0.005-0.035-0.013-0.052-0.019c-0.347-0.105-0.704-0.18-1.065-0.238
	c-0.071-0.011-0.142-0.021-0.213-0.031c-0.346-0.046-0.694-0.075-1.049-0.076c-0.013,0-0.026-0.001-0.039-0.001
	c-0.355,0.001-0.713,0.031-1.072,0.079c-0.091,0.012-0.18,0.028-0.271,0.044c-0.117,0.02-0.235,0.032-0.351,0.057l-9.552,2.032
	c-4.421,0.941-7.244,5.288-6.303,9.709c0.819,3.847,4.216,6.484,7.999,6.484c0.564,0,1.137-0.059,1.711-0.181l1.545-0.329
	l8.719,40.984l-1.545,0.329c-4.422,0.941-7.244,5.288-6.303,9.709c0.819,3.848,4.216,6.484,7.999,6.484
	c0.564,0,1.137-0.059,1.711-0.181l9.548-2.031c0.001,0,0.003,0,0.004-0.001c0.001,0,0.003-0.001,0.004-0.001l8.781-1.869
	c4.422-0.941,7.244-5.288,6.303-9.709c-0.941-4.422-5.286-7.246-9.709-6.303l-0.779,0.166l-6.206-29.167l50.339,33.958
	c2.767,1.867,6.389,1.866,9.156,0c2.767-1.866,4.123-5.226,3.429-8.489l-10.423-48.991L456.068,203.948z"/>
<path d="M511.82,320.614L480.684,174.27c8.927-4.763,17.774-9.809,26.361-15.077c3.854-2.364,5.061-7.404,2.697-11.257
	c-2.364-3.854-7.404-5.063-11.257-2.697c-7.041,4.32-14.263,8.485-21.558,12.463c-1.586-3.353-5.31-5.309-9.095-4.504
	l-117.286,24.953c-2.124,0.452-3.98,1.729-5.162,3.549c-1.182,1.821-1.591,4.037-1.141,6.16l3.846,18.077
	c-7.867,1.744-15.837,3.315-23.853,4.679v-15.553c0-4.521-3.665-8.186-8.186-8.186H196.138c-4.521,0-8.186,3.665-8.186,8.186v19.656
	c-8.946-0.974-17.914-2.201-26.814-3.668l3.142-19.952c0.338-2.145-0.19-4.335-1.468-6.09c-1.277-1.755-3.2-2.932-5.345-3.269
	L39.017,163.088c-4.418-0.701-8.573,2.293-9.334,6.693c-5.953-2.843-11.87-5.801-17.672-8.866c-3.998-2.111-8.95-0.583-11.062,3.415
	s-0.583,8.95,3.415,11.062c7.423,3.92,15.022,7.683,22.658,11.241L4.034,332.614c-0.437,2.773,0.578,5.577,2.689,7.428
	c2.112,1.851,5.024,2.491,7.715,1.695l59.927-17.706l51.585,35.266c1.383,0.945,2.996,1.429,4.62,1.429
	c1.099,0,2.204-0.222,3.244-0.67c2.578-1.112,4.405-3.469,4.843-6.242l19.935-126.59c9.745,1.604,19.569,2.932,29.362,3.962v128.599
	c0,2.807,1.438,5.419,3.812,6.92c2.374,1.5,5.35,1.68,7.887,0.475l56.443-26.812l56.443,26.812c1.115,0.529,2.316,0.792,3.512,0.792
	c1.525,0,3.044-0.426,4.374-1.266c2.373-1.501,3.812-4.113,3.812-6.92V227.198c9.159-1.507,18.276-3.258,27.261-5.247
	l27.026,127.023c0.585,2.746,2.535,5.002,5.169,5.974c0.922,0.342,1.883,0.508,2.837,0.508c1.774,0,3.525-0.575,4.976-1.684
	l49.627-37.972l60.787,14.479c2.73,0.651,5.604-0.144,7.615-2.105C511.541,326.215,512.405,323.361,511.82,320.614z
	 M124.499,338.474l-44.104-30.152c-1.376-0.941-2.989-1.429-4.62-1.429c-0.776,0-1.557,0.111-2.319,0.336L22.22,322.368
	l22.336-141.836l102.279,16.106L124.499,338.474z M307.864,346.832l-48.258-22.923c-1.112-0.528-2.312-0.792-3.512-0.792
	c-1.201,0-2.401,0.264-3.512,0.792l-48.258,22.923V203.25h103.539V346.832z M441.14,298.975c-2.391-0.569-4.916-0.034-6.871,1.461
	l-42.429,32.465l-29.881-140.44l101.274-21.547l29.88,140.44L441.14,298.975z"/>
<g>
</g>
<g>
</g>
<g>
</g>
<g>
</g>
<g>
</g>
<g>
</g>
<g>
</g>
<g>
</g>
<g>
</g>
<g>
</g>
<g>
</g>
<g>
</g>
<g>
</g>
<g>
</g>
<g>
</g>
</svg>
